<?xml version="1.0" encoding="iso-8859-1"?>
<!-- Generator: Adobe Illustrator 19.0.0, SVG Export Plug-In . SVG Version: 6.00 Build 0)  -->
<svg version="1.1" id="Capa_1" xmlns="http://www.w3.org/2000/svg" xmlns:xlink="http://www.w3.org/1999/xlink" x="0px" y="0px"
	 viewBox="0 0 512 512" style="enable-background:new 0 0 512 512;" xml:space="preserve">
<g>
	<path style="fill:#E1E6E9;" d="M70.999,124.994c64.304-18.6,125.906-43.627,185.013-75.13
		C314.417,80.911,377.421,106.487,441,124.971v83.724c0,75.966-28.748,142.469-83.346,194.943
		c-19.325,18.573-41.61,35.06-65.196,47.829c-8.18,4.428-26.392,13.522-36.457,15.381c-10.066-1.858-28.278-10.953-36.458-15.381
		c-23.586-12.77-45.872-29.256-65.196-47.829c-54.598-52.475-83.346-118.978-83.346-194.943L70.999,124.994L70.999,124.994z
		 M35.999,98.302v110.394C35.999,415.799,225.269,502,256,502c30.73,0,220-86.201,220-293.304V98.302
		C402.24,79.177,325.07,48.591,256,9.999C186.693,48.72,114.209,78.024,35.999,98.302z"/>
	<path style="fill:#F46151;" d="M256.011,49.864c-59.106,31.503-120.709,56.53-185.013,75.13v83.701
		c0,75.966,28.748,142.469,83.346,194.943c19.324,18.573,41.61,35.06,65.196,47.829c8.18,4.428,26.392,13.522,36.458,15.381
		c10.065-1.858,28.277-10.953,36.457-15.381c23.586-12.77,45.871-29.256,65.196-47.829c54.598-52.475,83.346-118.978,83.346-194.943
		v-83.724C377.421,106.487,314.417,80.911,256.011,49.864L256.011,49.864z M256,136.498L256,136.498L256,136.498z M255.999,260.21
		L255.999,260.21L255.999,260.21z M234.703,187.059v-19.633v-9.632c0-11.713,9.583-21.297,21.297-21.297
		c11.713,0,21.295,9.584,21.295,21.297v9.632v19.633v28.294v23.561c0,11.712-9.583,21.296-21.296,21.296
		c-11.712,0-21.296-9.583-21.296-21.296v-23.561V199.65V187.059L234.703,187.059z M258.219,294.354c12.98,0,23.5,10.522,23.5,23.5
		c0,12.98-10.52,23.501-23.5,23.501c-12.978,0-23.5-10.521-23.5-23.501C234.719,304.876,245.241,294.354,258.219,294.354z"/>
	<g>
		<path style="fill:#F9AD32;" d="M234.703,167.426v19.633v12.591v15.703v23.561c0,11.713,9.584,21.296,21.296,21.296
			c11.713,0,21.296-9.584,21.296-21.296v-23.561v-28.294v-19.633v-9.632c0-11.713-9.582-21.297-21.295-21.297
			c-11.714,0-21.297,9.584-21.297,21.297L234.703,167.426L234.703,167.426z"/>
		<circle style="fill:#F9AD32;" cx="258.221" cy="317.852" r="23.5"/>
	</g>
</g>
<path d="M478.511,88.623c-74.818-19.4-150.075-49.606-217.632-87.354c-3.031-1.693-6.726-1.693-9.755,0
	C181.622,40.099,110.433,68.672,33.489,88.623c-4.41,1.144-7.49,5.124-7.49,9.68v110.394c0,113.535,55.292,188.637,101.678,231.647
	C177.434,486.484,235.136,512,256,512s78.565-25.517,128.323-71.655c46.385-43.011,101.678-118.114,101.678-231.647V98.302
	C486.001,93.747,482.921,89.766,478.511,88.623z M466.001,208.696c0,106.319-51.811,176.68-95.275,216.982
	c-27.558,25.553-54.337,41.685-71.949,50.718C276.457,487.844,260.966,492,256.001,492c-4.967,0-20.457-4.155-42.776-15.603
	c-17.612-9.033-44.392-25.165-71.948-50.718c-43.465-40.303-95.276-110.664-95.276-216.982V106.008
	c73.962-19.801,142.8-47.524,210.001-84.573c65.495,36.06,137.825,65.185,209.998,84.57V208.696z"/>
<path d="M68.22,115.387c-4.277,1.237-7.222,5.154-7.222,9.606v83.701c0,39.077,7.404,76.16,22.008,110.222
	c14.53,33.891,36.2,64.82,64.408,91.933c20.171,19.387,43.466,36.474,67.365,49.413c4.282,2.318,26.306,14.003,39.403,16.421
	c0.6,0.11,1.208,0.166,1.815,0.166c0.607,0,1.216-0.056,1.815-0.166c13.097-2.418,35.12-14.103,39.402-16.421
	c23.897-12.939,47.191-30.024,67.365-49.413c28.208-27.111,49.878-58.041,64.408-91.933c14.603-34.06,22.008-71.143,22.008-110.222
	V124.97c0-4.447-2.938-8.36-7.208-9.603C380.45,96.953,318.851,71.943,260.702,41.032c-2.936-1.563-6.46-1.561-9.396,0.006
	C193.073,72.078,131.474,97.092,68.22,115.387z M256.017,61.175c55.755,29.249,114.567,53.203,174.982,71.272v76.247
	c0,73.375-27.009,136.538-80.275,187.733c-18.895,18.16-40.689,34.151-63.027,46.245c-10.167,5.503-23.892,11.919-31.696,13.934
	c-7.806-2.015-21.53-8.431-31.697-13.934c-22.34-12.095-44.135-28.086-63.027-46.245C108.008,345.233,81,282.069,81,208.695v-76.214
	C141.356,114.509,200.173,90.547,256.017,61.175z"/>
<path d="M158.196,371.725c1.968,2.163,4.677,3.268,7.399,3.268c2.337,0,4.685-0.814,6.581-2.475c4.156-3.637,4.577-9.954,0.94-14.11
	c-0.07-0.081-0.189-0.213-0.32-0.352c-3.704-4.024-9.968-4.324-14.044-0.657c-4.105,3.694-4.438,10.017-0.743,14.122
	C158.044,371.561,158.136,371.661,158.196,371.725z"/>
<path d="M179.161,392.56c11.654,10.418,24.146,19.854,37.129,28.048c1.657,1.045,3.503,1.544,5.327,1.544
	c3.318,0,6.564-1.65,8.467-4.664c2.947-4.671,1.55-10.847-3.12-13.794c-12.047-7.602-23.646-16.364-34.473-26.044
	c-4.118-3.682-10.439-3.325-14.12,0.79C174.69,382.558,175.044,388.879,179.161,392.56z"/>
<path d="M256,270.21c17.256,0,31.295-14.039,31.295-31.296v-81.12c0-17.257-14.039-31.297-31.296-31.297
	s-31.296,14.04-31.296,31.297v81.12C224.703,256.171,238.743,270.21,256,270.21z M244.703,157.794
	c0-6.229,5.067-11.297,11.297-11.297c6.227,0,11.295,5.067,11.295,11.297v81.12c0,6.229-5.067,11.296-11.295,11.296h-0.001
	c-6.229,0-11.296-5.067-11.296-11.296V157.794z"/>
<path d="M258.219,284.354c-18.472,0-33.5,15.028-33.5,33.5c0,18.473,15.028,33.501,33.5,33.501
	c18.473,0,33.501-15.028,33.501-33.501C291.721,299.383,276.693,284.354,258.219,284.354z M258.219,331.356
	c-7.444,0-13.5-6.057-13.5-13.501c0-7.444,6.056-13.5,13.5-13.5c7.444,0,13.501,6.056,13.501,13.5
	C271.72,325.299,265.664,331.356,258.219,331.356z"/>
<g>
</g>
<g>
</g>
<g>
</g>
<g>
</g>
<g>
</g>
<g>
</g>
<g>
</g>
<g>
</g>
<g>
</g>
<g>
</g>
<g>
</g>
<g>
</g>
<g>
</g>
<g>
</g>
<g>
</g>
</svg>
