<?xml version="1.0" encoding="iso-8859-1"?>
<!-- Generator: Adobe Illustrator 19.0.0, SVG Export Plug-In . SVG Version: 6.00 Build 0)  -->
<svg version="1.1" id="Capa_1" xmlns="http://www.w3.org/2000/svg" xmlns:xlink="http://www.w3.org/1999/xlink" x="0px" y="0px"
	 viewBox="0 0 512 512" style="enable-background:new 0 0 512 512;" xml:space="preserve">
<path style="fill:#D4D0BA;" d="M410.345,345.027v159.468H101.653V345.027c0-27.772,22.51-50.284,50.284-50.284h208.125
	C387.835,294.744,410.345,317.254,410.345,345.027z"/>
<rect x="101.65" y="436.065" style="fill:#699FCC;" width="308.694" height="68.421"/>
<path style="fill:#C1BCA4;" d="M348.123,294.744c-24.638,21.469-56.867,34.473-92.123,34.473s-67.485-13.003-92.123-34.473H348.123z
	"/>
<circle style="fill:#FBC176;" cx="139.061" cy="185.412" r="34.496"/>
<path style="fill:#FFD19F;" d="M372.937,188.891c0,6.736-0.573,13.342-1.672,19.762c-9.378,55.172-57.417,97.175-115.265,97.175
	c-60.258,0-109.874-45.583-116.236-104.145c-0.468-4.198-0.702-8.466-0.702-12.793c0-64.573,52.353-116.937,116.937-116.937
	c9.577,0,18.885,1.146,27.796,3.333c29.281,7.133,54.248,25.305,70.245,49.851C365.991,143.473,372.937,165.375,372.937,188.891z"/>
<path style="fill:#DD6352;" d="M285.069,226.327c5.069,0,8.753,4.808,7.454,9.708c-4.285,16.163-19.013,28.075-36.524,28.075
	c-17.511,0-32.239-11.912-36.524-28.075c-1.299-4.9,2.385-9.708,7.454-9.708L285.069,226.327L285.069,226.327z"/>
<path style="fill:#FBC176;" d="M354.04,125.138c-15.997-24.545-40.964-42.718-70.245-49.851c-8.911-2.187-18.219-3.333-27.796-3.333
	c-64.585,0-116.937,52.365-116.937,116.937c0,4.327,0.234,8.595,0.702,12.793c0,0,9.308-24.451,31.164-39.957
	c9.93-7.045,21.201-11.6,42.202-11.6c6.572,0,13.67,0.316,21.189,0.643c8.712,0.386,17.728,0.784,27.386,0.784
	c15.459,0,28.696-1.029,41.664-3.227c12.009-2.035,22.428-5.204,31.269-9.495c25.726,18.219,36.624,69.824,36.624,69.824
	c1.099-6.42,1.672-13.027,1.672-19.762C372.937,165.375,365.991,143.473,354.04,125.138z"/>
<path style="fill:#F9E3AC;" d="M346.786,43.548c0,0,47.2,18.49,48.369,76.959c1.169,58.469-22.218,68.391-22.218,68.391
	s-8.022-66.052-51.371-80.084S311.281,28.565,346.786,43.548z"/>
<path style="fill:#FFDF78;" d="M300.436,131.031c-61.977,10.524-111.09-12.863-140.326,19.879
	c-28.743,32.181-21.317,47.419-21.06,47.933c-0.631-0.643-23.294-24.182-17.529-81.845c0.094-0.9,0.187-1.801,0.292-2.69
	c6.35-56.505,31.596-79.26,51.745-85.014l-5.262-18.71c0,0,29.339,8.186,62.024,0c24.709-6.186,80.161-4.806,106.787,20.3
	c8.618,8.104,14.208,18.698,14.781,32.321C352.671,81.753,362.412,120.507,300.436,131.031z"/>
<path style="fill:#FFCB39;" d="M300.436,131.031c-61.977,10.524-111.09-12.863-140.326,19.879
	c-28.743,32.181-21.317,47.419-21.06,47.933c-0.631-0.643-23.294-24.182-17.529-81.845c0.094-0.9,0.187-1.801,0.292-2.69
	c2.491,6.747,8.688,21.166,17.248,25.293c0,0,13.646-31.175,43.267-32.742l-8.77-14.804c0,0,122.585,44.437,156.895-9.355
	c12.08-18.944,11.928-36.73,6.654-51.815c8.618,8.104,14.208,18.698,14.781,32.321C352.671,81.753,362.412,120.507,300.436,131.031z
	"/>
<path style="fill:#D4D0BA;" d="M388.837,234.844h-23.284v-78.001h23.284c11.447,0,20.727,9.28,20.727,20.727v36.547
	C409.564,225.564,400.284,234.844,388.837,234.844z"/>
<path style="fill:#365889;" d="M278.666,285.735h-9.667c-7.18,0-13-5.82-13-13l0,0c0-7.18,5.82-13,13-13h9.667c7.18,0,13,5.82,13,13
	l0,0C291.667,279.914,285.846,285.735,278.666,285.735z"/>
<rect x="280.332" y="372.335" style="fill:#3C6EAA;" width="71.401" height="32.33"/>
<path d="M410.351,378.589c4.143,0,7.5-3.358,7.5-7.5v-26.06c0-31.86-25.925-57.781-57.791-57.781h-27.83
	c2.479-1.921,4.876-3.927,7.189-6.013h19.832c20.448,0,37.085-16.636,37.085-37.084v-2.826c11.934-3.294,20.727-14.24,20.727-27.207
	v-36.547c0-11.381-6.774-21.203-16.499-25.665c1.609-9.393,2.32-19.956,2.085-31.549c-1.099-54.871-39.872-77.447-50.464-82.598
	c-3.77-6.419-8.986-12.152-15.664-17.143C307.516-1.061,255.152-3.364,228.503,3.309c-30.239,7.572-57.926,0.124-58.191,0.051
	c-2.61-0.728-5.41,0.008-7.324,1.926c-1.915,1.918-2.645,4.72-1.911,7.329l3.381,12.021c-8.649,3.813-19.103,10.99-28.543,24.476
	c-11.722,16.746-19.075,39.334-21.855,67.14c-1.355,13.547-1.197,25.341-0.123,35.517c-10.508,7.874-16.868,20.343-16.868,33.637
	c0,22.688,18.081,41.219,40.586,41.964c7.808,23.959,22.7,44.747,42.197,59.876h-27.912c-31.866,0-57.791,25.92-57.791,57.781V504.5
	c0,4.142,3.358,7.5,7.5,7.5h308.704c4.143,0,7.5-3.358,7.5-7.5V400.989c0-4.142-3.357-7.5-7.5-7.5c-4.143,0-7.5,3.358-7.5,7.5
	v27.581h-43.619v-23.905v-32.333c0-4.142-3.357-7.5-7.5-7.5h-71.401c-4.143,0-7.5,3.358-7.5,7.5v32.333c0,4.142,3.357,7.5,7.5,7.5
	h63.9v16.405H230.418c-4.142,0-7.5,3.358-7.5,7.5c0,4.142,3.358,7.5,7.5,7.5h113.815V497H167.765v-53.43h29.9
	c4.142,0,7.5-3.358,7.5-7.5c0-4.142-3.358-7.5-7.5-7.5h-29.9v-23.905c0-4.142-3.358-7.5-7.5-7.5c-4.142,0-7.5,3.358-7.5,7.5v23.905
	h-43.618v-83.542c0-23.589,19.195-42.781,42.791-42.781h52.725c15.659,7.12,33.042,11.09,51.337,11.09
	c17.956,0,35.395-3.797,51.428-11.09h52.633c23.595,0,42.791,19.191,42.791,42.781v26.06
	C402.851,375.231,406.208,378.589,410.351,378.589z M287.832,379.832h56.4v17.333h-56.4V379.832z M359.233,443.57h43.618V497
	h-43.618V443.57z M152.765,443.57V497h-43.618v-53.43H152.765z M359.251,266.234h-5.748c5.837-7.35,10.829-15.351,14.883-23.891
	h12.95v1.806C381.337,256.327,371.429,266.234,359.251,266.234z M402.064,214.117c0,7.293-5.934,13.227-13.227,13.227h-15.784v-24
	h8.615c4.143,0,7.5-3.358,7.5-7.5s-3.357-7.5-7.5-7.5h-8.615v-24h15.784c7.293,0,13.227,5.934,13.227,13.227V214.117z
	 M387.654,120.658c0.216,10.645-0.421,20.249-1.865,28.685h-16.135c-5.719-13.525-12.902-24.481-21.441-32.739
	c2.531-2.836,4.686-5.9,6.413-9.218c7.151-13.735,5.988-28.3,5.138-38.935c-0.161-2.018-0.313-3.923-0.382-5.557
	c-0.042-1.013-0.114-2.013-0.204-3.005C371.534,69.849,387.012,88.658,387.654,120.658z M112.067,185.406
	c0-5.685,1.819-11.131,5.018-15.636c4.648,18.532,12.077,28.975,15.222,32.761c0.345,3.149,0.808,6.262,1.384,9.337
	C121.372,209.373,112.067,198.456,112.067,185.406z M146.558,188.896c0-0.612-0.081-1.203-0.22-1.773
	c1.668-6.494,6.473-16.776,19.367-31.218c15.634-17.509,38.045-16.522,69.06-15.162l4.79,0.208c4.164,0.183,7.635-3.038,7.81-7.176
	c0.175-4.139-3.038-7.635-7.176-7.81l-4.766-0.207c-32.483-1.425-60.536-2.659-80.908,20.158
	c-10.501,11.761-16.632,21.637-20.078,29.688c-2.003-5.475-3.848-12.316-5.032-20.626c-0.024-0.376-0.069-0.753-0.151-1.126
	c-1.319-9.916-1.695-21.865-0.271-36.105c6.487-64.87,37.334-78.581,46.635-81.238c3.971-1.135,6.277-5.266,5.159-9.242
	l-1.969-7.001c12.228,1.743,32.038,2.931,53.338-2.402c23.154-5.797,70.448-3.874,95.396,14.77c5.527,4.13,9.66,8.795,12.46,14.064
	c0.065,0.139,0.134,0.274,0.207,0.408c2.539,4.927,3.932,10.375,4.186,16.419c0.08,1.917,0.243,3.96,0.416,6.123
	c0.744,9.313,1.671,20.902-3.489,30.813c-2.038,3.913-4.929,7.351-8.665,10.351c-0.038,0.028-0.074,0.059-0.112,0.088
	c-7.553,6.019-18.583,10.231-33.365,12.741c-8.639,1.467-17.576,2.35-27.322,2.7c-4.139,0.148-7.374,3.625-7.226,7.764
	c0.148,4.139,3.608,7.375,7.765,7.226c10.413-0.374,19.996-1.323,29.295-2.902c14.172-2.406,25.806-6.483,34.883-12.153
	c10.668,9.791,17.465,23.684,21.478,34.532v67.63c-5.595,14.441-14.115,27.234-24.731,37.801h-35.228
	c-1.423-4.24-4.187-7.866-7.798-10.364c4.433-5.141,7.712-11.252,9.473-17.909c1.224-4.61,0.259-9.421-2.647-13.2
	c-2.901-3.771-7.294-5.935-12.051-5.935h-58.141c-4.757,0-9.149,2.163-12.05,5.934c-2.907,3.778-3.873,8.589-2.65,13.196
	c4.604,17.385,19.027,30.166,36.358,33.038c-0.049,0.575-0.088,1.152-0.088,1.739c0,11.304,9.196,20.5,20.5,20.5h9.667
	c8.27,0,15.393-4.932,18.632-12h17.259c-17.188,10.906-37.413,17.103-58.559,17.103
	C195.653,298.338,146.558,249.242,146.558,188.896z M285.268,234.119c-1.999,7.555-6.914,14.067-13.601,18.116H269
	c-4.752,0-9.12,1.64-12.6,4.364c-0.135,0.002-0.262,0.009-0.4,0.009c-13.727,0-25.763-9.248-29.271-22.493
	c-0.015-0.054-0.031-0.116,0.04-0.208c0.062-0.08,0.105-0.08,0.161-0.08h58.141c0.056,0,0.1,0,0.16,0.08
	C285.3,233.998,285.284,234.059,285.268,234.119z M268.999,267.234h4.486c0.064,0.001,0.128,0,0.192,0h4.99
	c3.033,0,5.5,2.467,5.5,5.5s-2.467,5.5-5.5,5.5H269c-3.033,0-5.5-2.467-5.5-5.5S265.966,267.234,268.999,267.234z"/>
<path d="M215.848,180.535c0-4.142-3.358-7.5-7.5-7.5h-1.169c-4.142,0-7.5,3.358-7.5,7.5s3.358,7.5,7.5,7.5h1.169
	C212.49,188.035,215.848,184.677,215.848,180.535z"/>
<path d="M303.652,188.035h1.17c4.143,0,7.5-3.358,7.5-7.5s-3.357-7.5-7.5-7.5h-1.17c-4.143,0-7.5,3.358-7.5,7.5
	S299.509,188.035,303.652,188.035z"/>
<g>
</g>
<g>
</g>
<g>
</g>
<g>
</g>
<g>
</g>
<g>
</g>
<g>
</g>
<g>
</g>
<g>
</g>
<g>
</g>
<g>
</g>
<g>
</g>
<g>
</g>
<g>
</g>
<g>
</g>
</svg>
