<?xml version="1.0" encoding="iso-8859-1"?>
<!-- Generator: Adobe Illustrator 19.0.0, SVG Export Plug-In . SVG Version: 6.00 Build 0)  -->
<svg version="1.1" id="Capa_1" xmlns="http://www.w3.org/2000/svg" xmlns:xlink="http://www.w3.org/1999/xlink" x="0px" y="0px"
	 viewBox="0 0 512 512" style="enable-background:new 0 0 512 512;" xml:space="preserve">
<path style="fill:#699FCC;" d="M410.344,345.026v159.468H101.652V345.026c0-27.772,22.51-50.284,50.284-50.284h208.125
	C387.833,294.743,410.344,317.254,410.344,345.026z"/>
<path style="fill:#4C88BA;" d="M348.121,294.743c-24.638,21.469-56.867,34.473-92.123,34.473s-67.485-13.003-92.123-34.473H348.121z
	"/>
<g>
	<circle style="fill:#FBC176;" cx="372.932" cy="185.402" r="34.496"/>
	<circle style="fill:#FBC176;" cx="139.06" cy="185.402" r="34.496"/>
</g>
<polygon style="fill:#EFEADD;" points="300.434,414.207 255.998,466.641 211.561,414.207 230.915,326.972 237.288,298.251 
	274.708,298.251 281.081,326.972 "/>
<path style="fill:#D4D0BA;" d="M281.081,326.972c-8.139,1.473-16.523,2.245-25.083,2.245s-16.944-0.772-25.083-2.245l6.373-28.72
	h37.42L281.081,326.972z"/>
<path style="fill:#FFD19F;" d="M372.935,188.891c0,6.736-0.573,13.342-1.672,19.762c-9.378,55.172-57.417,97.175-115.265,97.175
	c-60.258,0-109.874-45.583-116.236-104.145c-0.468-4.198-0.702-8.466-0.702-12.793c0-64.573,52.353-116.937,116.937-116.937
	c9.577,0,18.885,1.146,27.796,3.333c29.281,7.133,54.248,25.305,70.245,49.851C365.989,143.473,372.935,165.375,372.935,188.891z"/>
<path style="fill:#FBC176;" d="M354.038,125.136c-15.997-24.545-40.964-42.718-70.245-49.851
	c-8.911-2.187-18.219-3.333-27.796-3.333c-64.585,0-116.937,52.365-116.937,116.937c0,4.327,0.234,8.595,0.702,12.793
	c0,0,9.308-24.451,31.164-39.957c9.93-7.045,21.201-11.6,42.202-11.6c6.572,0,13.67,0.316,21.189,0.643
	c8.712,0.386,17.728,0.784,27.386,0.784c15.459,0,28.696-1.029,41.664-3.227c12.009-2.035,22.428-5.204,31.269-9.495
	c25.726,18.219,36.624,69.824,36.624,69.824c1.099-6.42,1.672-13.027,1.672-19.762C372.935,165.375,365.989,143.473,354.038,125.136
	z"/>
<path style="fill:#4E8AD1;" d="M346.785,43.547c0,0,47.2,18.49,48.369,76.959c1.169,58.469-22.218,68.391-22.218,68.391
	s-8.022-66.052-51.371-80.084S311.279,28.565,346.785,43.547z"/>
<path style="fill:#3C6EAA;" d="M300.434,131.03c-61.977,10.524-111.09-12.863-140.326,19.879
	c-28.743,32.181-21.317,47.419-21.06,47.933c-0.631-0.643-23.294-24.182-17.529-81.845c0.094-0.9,0.187-1.801,0.292-2.69
	c6.35-56.505,31.596-79.26,51.745-85.014l-5.262-18.71c0,0,29.339,8.186,62.024,0c24.709-6.186,80.161-4.806,106.787,20.3
	c8.618,8.104,14.208,18.698,14.781,32.321C352.67,81.753,362.411,120.506,300.434,131.03z"/>
<path style="fill:#365889;" d="M300.434,131.03c-61.977,10.524-111.09-12.863-140.326,19.879
	c-28.743,32.181-21.317,47.419-21.06,47.933c-0.631-0.643-23.294-24.182-17.529-81.845c0.094-0.9,0.187-1.801,0.292-2.69
	c2.491,6.747,8.688,21.166,17.248,25.293c0,0,13.646-31.175,43.267-32.742l-2.73-4.608c-2.08-3.511,1.237-7.742,5.142-6.558
	c31.025,9.409,117.729,30.879,145.713-12.993c12.08-18.944,11.928-36.73,6.654-51.815c8.618,8.104,14.208,18.698,14.781,32.321
	C352.67,81.753,362.411,120.506,300.434,131.03z"/>
<path style="fill:#DD6352;" d="M285.067,226.326c5.069,0,8.753,4.808,7.454,9.708c-4.285,16.163-19.013,28.075-36.524,28.075
	s-32.239-11.912-36.524-28.075c-1.299-4.9,2.385-9.708,7.454-9.708L285.067,226.326L285.067,226.326z"/>
<path d="M101.646,512H410.35c4.142,0,7.5-3.358,7.5-7.5v-90.501c0-4.142-3.358-7.5-7.5-7.5c-4.142,0-7.5,3.358-7.5,7.5V497h-43.618
	v-92.335c0-4.142-3.358-7.5-7.5-7.5c-4.142,0-7.5,3.358-7.5,7.5V497h-80.734V469.39l42.662-50.333
	c1.517-1.789,2.109-4.185,1.601-6.475l-22.782-102.664c7.754-1.857,15.231-4.436,22.349-7.672h52.732
	c23.595,0,42.791,19.191,42.791,42.781v39.02c0,4.142,3.358,7.5,7.5,7.5c4.142,0,7.5-3.358,7.5-7.5v-39.02
	c0-31.86-25.924-57.781-57.791-57.781h-27.916c19.497-15.129,34.389-35.916,42.198-59.876c22.506-0.743,40.589-19.276,40.589-41.965
	c0-12.36-5.388-23.931-14.629-31.86c1.669-9.064,2.611-20,2.347-33.19c-1.099-54.872-39.872-77.448-50.464-82.598
	c-3.77-6.418-8.986-12.152-15.665-17.143C307.514-1.062,255.149-3.363,228.502,3.309c-30.239,7.572-57.926,0.124-58.191,0.051
	c-2.609-0.727-5.41,0.008-7.324,1.926c-1.915,1.918-2.645,4.72-1.911,7.329l3.382,12.026c-12.644,5.603-23.974,16.209-32.432,30.512
	c-2.108,3.565-0.927,8.165,2.638,10.273c3.564,2.109,8.165,0.927,10.273-2.638c10.845-18.339,23.877-24.338,30.68-26.282
	c3.971-1.134,6.278-5.266,5.16-9.242l-1.969-7.001c12.229,1.743,32.038,2.931,53.338-2.402c23.154-5.796,70.448-3.874,95.396,14.77
	c5.528,4.131,9.661,8.796,12.461,14.066c0.064,0.137,0.132,0.27,0.204,0.402c2.54,4.928,3.934,10.377,4.188,16.422
	c0.08,1.917,0.244,3.96,0.417,6.123c0.744,9.313,1.67,20.902-3.49,30.813c-2.037,3.913-4.928,7.351-8.663,10.35
	c-0.038,0.027-0.074,0.059-0.111,0.087c-7.553,6.02-18.583,10.232-33.366,12.742c-23.026,3.909-44.667,2.958-63.758,2.121
	c-32.479-1.427-60.535-2.659-80.906,20.157c-10.501,11.761-16.632,21.637-20.078,29.688c-2.003-5.475-3.848-12.316-5.032-20.626
	c-0.024-0.376-0.069-0.753-0.151-1.126c-1.319-9.916-1.695-21.865-0.271-36.105c0.994-9.938,2.633-19.235,4.874-27.634
	c1.067-4.002-1.312-8.112-5.313-9.18c-4.003-1.069-8.113,1.311-9.18,5.313c-2.447,9.175-4.232,19.271-5.306,30.007
	c-1.355,13.547-1.197,25.341-0.123,35.517c-10.508,7.874-16.868,20.343-16.868,33.637c0,22.689,18.083,41.221,40.589,41.965
	c7.809,23.96,22.701,44.747,42.198,59.876h-27.916c-31.866,0-57.791,25.92-57.791,57.781V504.5
	C94.146,508.642,97.504,512,101.646,512z M399.93,185.406c0,13.051-9.306,23.968-21.628,26.463
	c1.149-6.129,1.846-12.413,2.057-18.82c4.216-3.239,10.428-9.789,15.233-22.313C398.38,175.04,399.93,180.108,399.93,185.406z
	 M387.651,120.654c0.574,28.669-4.997,44.445-10.063,52.804c-3.782-15.537-12.147-40.128-29.382-56.849
	c2.534-2.838,4.691-5.905,6.42-9.225c7.151-13.735,5.987-28.3,5.138-38.935c-0.161-2.018-0.313-3.923-0.382-5.557
	c-0.042-1.013-0.114-2.013-0.204-3.004C371.533,69.849,387.01,88.657,387.651,120.654z M112.066,185.406
	c0-5.685,1.819-11.131,5.018-15.636c4.65,18.539,12.083,28.983,15.226,32.766c0.345,3.147,0.807,6.26,1.383,9.333
	C121.371,209.374,112.066,198.457,112.066,185.406z M146.56,188.897c0-0.615-0.082-1.208-0.221-1.78
	c1.67-6.494,6.475-16.775,19.365-31.211c15.632-17.508,38.042-16.524,69.059-15.162c19.84,0.871,42.327,1.859,66.927-2.318
	c14.18-2.408,25.819-6.487,34.898-12.163c22.129,20.262,28.184,58.46,28.842,63.076c-0.239,60.142-49.236,108.996-109.432,108.996
	C195.654,298.334,146.56,249.241,146.56,188.897z M109.146,345.028c0-23.589,19.195-42.781,42.791-42.781h52.732
	c7.118,3.236,14.595,5.815,22.35,7.672l-13.023,58.704c-0.897,4.044,1.654,8.049,5.697,8.946c0.547,0.122,1.093,0.18,1.631,0.18
	c3.439,0,6.54-2.38,7.315-5.877l13.167-59.353c4.659,0.531,9.393,0.814,14.192,0.814c4.799,0,9.533-0.283,14.192-0.814l22.12,99.678
	l-36.312,42.84l-36.31-42.839l2.891-12.993c0.9-4.043-1.649-8.05-5.692-8.95c-4.045-0.901-8.051,1.649-8.95,5.692l-3.7,16.63
	c-0.51,2.291,0.082,4.688,1.6,6.479l42.661,50.333V497h-80.734v-92.335c0-4.142-3.358-7.5-7.5-7.5s-7.5,3.358-7.5,7.5V497h-43.618
	L109.146,345.028L109.146,345.028z"/>
<path d="M215.846,180.534c0-4.142-3.358-7.5-7.5-7.5h-1.169c-4.142,0-7.5,3.358-7.5,7.5c0,4.142,3.358,7.5,7.5,7.5h1.169
	C212.488,188.034,215.846,184.676,215.846,180.534z"/>
<path d="M303.65,188.034h1.169c4.142,0,7.5-3.358,7.5-7.5c0-4.142-3.358-7.5-7.5-7.5h-1.169c-4.142,0-7.5,3.358-7.5,7.5
	C296.149,184.676,299.507,188.034,303.65,188.034z"/>
<path d="M299.771,237.956c1.222-4.608,0.255-9.418-2.651-13.195c-2.902-3.771-7.295-5.934-12.053-5.934h-58.141
	c-4.758,0-9.151,2.163-12.053,5.934c-2.906,3.777-3.873,8.587-2.651,13.196c5.253,19.814,23.253,33.653,43.774,33.653
	S294.518,257.771,299.771,237.956z M226.723,234.113c-0.014-0.054-0.03-0.114,0.04-0.205c0.063-0.082,0.11-0.082,0.165-0.082h58.141
	c0.055,0,0.102,0,0.165,0.082c0.07,0.091,0.054,0.151,0.04,0.205c-3.512,13.246-15.55,22.497-29.274,22.497
	C242.273,256.609,230.235,247.358,226.723,234.113z"/>
<g>
</g>
<g>
</g>
<g>
</g>
<g>
</g>
<g>
</g>
<g>
</g>
<g>
</g>
<g>
</g>
<g>
</g>
<g>
</g>
<g>
</g>
<g>
</g>
<g>
</g>
<g>
</g>
<g>
</g>
</svg>
