<?xml version="1.0" encoding="iso-8859-1"?>
<!-- Generator: Adobe Illustrator 19.0.0, SVG Export Plug-In . SVG Version: 6.00 Build 0)  -->
<svg version="1.1" id="Capa_1" xmlns="http://www.w3.org/2000/svg" xmlns:xlink="http://www.w3.org/1999/xlink" x="0px" y="0px"
	 viewBox="0 0 512 512" style="enable-background:new 0 0 512 512;" xml:space="preserve">
<path style="fill:#DD6352;" d="M7.5,367.835c0-137.243,111.257-248.5,248.5-248.5s248.5,111.257,248.5,248.5H7.5z"/>
<path style="fill:#EFEADD;" d="M49.928,367.835c0-113.81,92.262-206.072,206.072-206.072s206.072,92.262,206.072,206.072H49.928z"/>
<path style="fill:#6BDDC0;" d="M252.651,196.891l-15.679,170.944h38.056l-15.679-170.944
	C258.728,190.113,253.272,190.113,252.651,196.891z"/>
<circle style="fill:#3C6EAA;" cx="256" cy="369.15" r="23.515"/>
<circle style="fill:#4E8AD1;" cx="256" cy="369.15" r="10.01"/>
<path d="M437.018,186.816C388.667,138.465,324.38,111.838,256,111.838c-20.08,0-40.08,2.333-59.443,6.933
	c-4.03,0.958-6.521,5-5.563,9.03c0.958,4.03,5.006,6.525,9.03,5.563c18.23-4.331,37.063-6.527,55.977-6.527
	c130.382,0,236.913,104.064,240.885,233.5h-27.447c-1.435-41.766-14.85-81.657-39.028-115.798
	c-2.395-3.381-7.076-4.181-10.455-1.786c-3.38,2.394-4.18,7.075-1.786,10.455c22.373,31.593,34.835,68.487,36.263,107.129h-168.7
	c-1.029-3.465-2.644-6.678-4.736-9.523l-14.177-154.61c-0.748-8.178-6.132-11.902-10.819-11.902s-10.071,3.725-10.819,11.9
	l-14.177,154.612c-2.092,2.845-3.708,6.058-4.736,9.523H175.72c-4.142,0-7.5,3.358-7.5,7.5s3.358,7.5,7.5,7.5h49.887
	c2.877,14.146,15.411,24.824,30.393,24.824c14.982,0,27.516-10.679,30.393-24.824H504.5c4.142,0,7.5-3.358,7.5-7.5
	C512,299.456,485.371,235.168,437.018,186.816z M256,242.488l8.89,96.949c-2.818-0.845-5.801-1.305-8.89-1.305
	s-6.072,0.46-8.89,1.305L256,242.488z M256,385.162c-8.831,0-16.015-7.184-16.015-16.015s7.184-16.015,16.015-16.015
	s16.015,7.184,16.015,16.015S264.831,385.162,256,385.162z"/>
<path d="M145.659,360.335H57.584C61.542,254.305,149.019,169.262,256,169.262c54.688,0,105.64,21.765,143.468,61.284
	c2.864,2.992,7.612,3.097,10.604,0.232c2.992-2.864,3.096-7.612,0.232-10.604c-19.729-20.612-42.937-36.823-68.979-48.184
	c-26.963-11.764-55.671-17.728-85.325-17.728c-115.253,0-209.46,91.769-213.426,206.072H15.118
	c3.049-96.477,64.66-183.398,155.245-217.844c3.872-1.472,5.817-5.804,4.345-9.676c-1.472-3.872-5.806-5.816-9.676-4.345
	c-48.012,18.257-89.054,50.218-118.689,92.428C16.025,264.078,0,314.888,0,367.835c0,4.142,3.358,7.5,7.5,7.5h138.159
	c4.142,0,7.5-3.358,7.5-7.5S149.801,360.335,145.659,360.335z"/>
<path d="M392.575,344.133h39.452c4.142,0,7.5-3.358,7.5-7.5s-3.358-7.5-7.5-7.5h-39.452c-4.142,0-7.5,3.358-7.5,7.5
	S388.433,344.133,392.575,344.133z"/>
<path d="M119.425,329.133H79.973c-4.142,0-7.5,3.358-7.5,7.5s3.358,7.5,7.5,7.5h39.452c4.142,0,7.5-3.358,7.5-7.5
	S123.567,329.133,119.425,329.133z"/>
<path d="M404.934,277.945c3.555-2.125,4.714-6.731,2.589-10.286c-2.125-3.554-6.73-4.715-10.286-2.589l-16.806,10.047
	c-3.555,2.125-4.714,6.731-2.589,10.286c1.405,2.35,3.893,3.652,6.445,3.652c1.309,0,2.636-0.343,3.841-1.063L404.934,277.945z"/>
<path d="M176.57,242.993c3.555-2.125,4.714-6.731,2.589-10.286L169.111,215.9c-2.125-3.555-6.729-4.715-10.286-2.589
	c-3.555,2.125-4.714,6.731-2.589,10.286l10.047,16.806c1.405,2.35,3.893,3.652,6.445,3.652
	C174.038,244.056,175.364,243.714,176.57,242.993z"/>
<path d="M339.353,214.038l-9.664,17.03c-2.044,3.603-0.781,8.18,2.821,10.225c1.169,0.663,2.44,0.979,3.695,0.979
	c2.611,0,5.149-1.366,6.53-3.8l9.664-17.03c2.044-3.603,0.781-8.18-2.821-10.225C345.975,209.172,341.396,210.435,339.353,214.038z"
	/>
<path d="M132.458,288.324c2.044-3.603,0.781-8.18-2.821-10.225l-17.03-9.664c-3.603-2.045-8.181-0.782-10.225,2.821
	c-2.044,3.603-0.781,8.18,2.821,10.225l17.03,9.664c1.169,0.663,2.44,0.979,3.695,0.979
	C128.539,292.124,131.077,290.757,132.458,288.324z"/>
<g>
</g>
<g>
</g>
<g>
</g>
<g>
</g>
<g>
</g>
<g>
</g>
<g>
</g>
<g>
</g>
<g>
</g>
<g>
</g>
<g>
</g>
<g>
</g>
<g>
</g>
<g>
</g>
<g>
</g>
</svg>
